<?xml version="1.0" encoding="UTF-8" standalone="no"?>
<!-- Created with Inkscape (http://www.inkscape.org/) -->

<svg
   width="24.214138mm"
   height="26.4505mm"
   viewBox="0 0 24.214138 26.4505"
   version="1.1"
   id="svg1"
   xml:space="preserve"
   inkscape:version="1.4.3 (0d15f75, 2025-12-25)"
   sodipodi:docname="pyetk_icon.svg"
   inkscape:export-filename="pyetk_icon.png"
   inkscape:export-xdpi="24.190475"
   inkscape:export-ydpi="24.190475"
   xmlns:inkscape="http://www.inkscape.org/namespaces/inkscape"
   xmlns:sodipodi="http://sodipodi.sourceforge.net/DTD/sodipodi-0.dtd"
   xmlns="http://www.w3.org/2000/svg"
   xmlns:svg="http://www.w3.org/2000/svg"><sodipodi:namedview
     id="namedview1"
     pagecolor="#ffffff"
     bordercolor="#000000"
     borderopacity="0.25"
     inkscape:showpageshadow="2"
     inkscape:pageopacity="0.0"
     inkscape:pagecheckerboard="0"
     inkscape:deskcolor="#d1d1d1"
     inkscape:document-units="mm"
     inkscape:zoom="2.8756734"
     inkscape:cx="102.93241"
     inkscape:cy="38.078038"
     inkscape:window-width="1920"
     inkscape:window-height="1009"
     inkscape:window-x="1912"
     inkscape:window-y="-8"
     inkscape:window-maximized="1"
     inkscape:current-layer="layer1" /><defs
     id="defs1"><linearGradient
       id="coilBlue"
       x1="0"
       y1="0"
       x2="1"
       y2="0">
      <stop
   offset="0%"
   stop-color="#0097A7"
   id="stop1" />
      <stop
   offset="100%"
   stop-color="#00BCD4"
   id="stop2" />
    </linearGradient><linearGradient
       id="coilYellow"
       x1="1"
       y1="0"
       x2="0"
       y2="0">
      <stop
   offset="0%"
   stop-color="#F59E0B"
   id="stop3" />
      <stop
   offset="100%"
   stop-color="#FFD54F"
   id="stop4" />
    </linearGradient></defs><g
     inkscape:label="Layer 1"
     inkscape:groupmode="layer"
     id="layer1"
     transform="translate(-87.863192,-120.83508)"><g
       id="g8"><path
         style="fill:#0097a8;fill-opacity:1"
         d="m 87.863192,146.9771 v -0.30846 h 3.531093 c 2.919645,0 3.609476,-0.0204 3.983752,-0.1179 0.683811,-0.17811 0.965207,-0.3359 1.434411,-0.80431 0.544122,-0.54319 0.728886,-1.05481 0.725229,-2.00817 -0.003,-0.78065 -0.105648,-1.16897 -0.440999,-1.66821 -0.433109,-0.64478 -1.038796,-0.97577 -2.23529,-1.22154 -0.185936,-0.0382 -0.212067,-0.0792 -0.212067,-0.33296 v -0.28941 l 0.510577,-0.0968 c 0.999107,-0.18953 1.752875,-0.70158 2.105719,-1.43046 0.387036,-0.79951 0.387935,-2.0769 0.002,-2.83341 -0.36574,-0.71691 -1.295948,-1.3239 -2.189866,-1.42897 l -0.428425,-0.0504 v -0.32578 -0.32579 l 0.428425,-0.0504 c 0.608568,-0.0715 1.350937,-0.4313 1.761392,-0.85363 0.982871,-1.0113 0.966322,-3.0557 -0.03282,-4.05485 -0.367917,-0.36791 -0.983009,-0.66226 -1.640008,-0.7848 l -0.524069,-0.0977 0.02282,-0.30891 c 0.02256,-0.30537 0.02702,-0.30951 0.388086,-0.36078 1.973297,-0.28019 2.967909,-1.98917 2.321868,-3.98952 -0.161888,-0.50126 -0.710856,-1.13286 -1.19466,-1.37448 -0.777092,-0.3881 -1.004538,-0.40746 -4.786067,-0.40746 H 87.8632 v -0.30846 -0.30846 h 3.575327 c 2.109408,0 3.7455,0.0323 3.990373,0.0787 0.953614,0.18085 1.913815,0.84185 2.327787,1.60246 0.553633,1.0172 0.589655,2.51067 0.0855,3.54475 -0.249329,0.5114 -0.820127,1.10236 -1.300602,1.34654 l -0.369614,0.18785 0.414761,0.23407 c 1.016263,0.57355 1.609894,1.66718 1.609894,2.96587 0,1.39229 -0.572359,2.45825 -1.652625,3.07787 -0.215009,0.12333 -0.351502,0.22455 -0.303319,0.22495 0.195992,0.002 1.040703,0.64935 1.290374,0.98947 0.410517,0.55924 0.591089,1.10603 0.641205,1.94163 0.08907,1.48506 -0.468073,2.63127 -1.585529,3.26192 l -0.414761,0.23408 0.369614,0.18784 c 0.761676,0.3871 1.409165,1.27739 1.576848,2.16815 0.32562,1.72976 -0.331315,3.29279 -1.665935,3.96371 -0.831878,0.41819 -1.085711,0.44061 -4.989091,0.44061 h -3.600205 z m 11.027461,-12.91678 v -13.22524 h 0.30846 0.30846 v 13.22524 13.22524 h -0.30846 -0.30846 z m 1.927877,0 v -13.22524 h 0.30846 0.30846 v 13.22524 13.22524 h -0.30846 -0.30846 z m 3.87692,13.10656 c -1.44496,-0.38919 -2.3815,-1.42254 -2.55008,-2.8137 -0.0755,-0.62283 -0.0195,-1.40912 0.13335,-1.87217 0.24357,-0.73803 0.8748,-1.4828 1.51371,-1.78598 0.15452,-0.0733 0.25131,-0.15719 0.2151,-0.18636 -0.0362,-0.0292 -0.27105,-0.19013 -0.52186,-0.35768 -1.03822,-0.69356 -1.52631,-1.92886 -1.34598,-3.40654 0.13172,-1.07931 0.6803,-1.96197 1.51063,-2.43058 0.22387,-0.12634 0.40704,-0.24305 0.40704,-0.25935 0,-0.0163 -0.14362,-0.10289 -0.31915,-0.19245 -0.8116,-0.41404 -1.45769,-1.40038 -1.59736,-2.43856 -0.20393,-1.5158 0.34727,-2.85564 1.45643,-3.54025 0.25305,-0.15619 0.46008,-0.29477 0.46008,-0.30795 0,-0.0132 -0.1178,-0.0799 -0.26179,-0.14821 -0.39999,-0.18981 -0.88849,-0.64109 -1.16953,-1.08042 -0.36255,-0.56676 -0.51726,-1.17068 -0.51211,-1.99898 0.009,-1.45859 0.60115,-2.48927 1.76863,-3.07879 0.82839,-0.41829 0.99821,-0.43383 4.74079,-0.43383 h 3.45398 v 0.30846 0.30846 h -3.31215 c -3.48187,0 -3.82019,0.0265 -4.51503,0.35322 -0.59831,0.28136 -0.93197,0.60396 -1.21108,1.17092 -0.24297,0.49355 -0.25408,0.55509 -0.25358,1.40461 6.2e-4,1.03268 0.11496,1.3733 0.65913,1.96366 0.35291,0.38286 1.07023,0.76995 1.57668,0.85084 0.66505,0.10622 0.64614,0.0939 0.64169,0.41653 -0.004,0.29693 -0.006,0.29875 -0.3623,0.34095 -0.50402,0.0597 -1.19117,0.33188 -1.57292,0.62304 -0.64606,0.49277 -0.98136,1.276 -0.98136,2.29235 0,1.50357 0.85496,2.51689 2.35755,2.79421 l 0.53426,0.0986 v 0.29938 0.29938 l -0.51566,0.0952 c -0.68907,0.12718 -1.13587,0.33496 -1.55902,0.72501 -0.51174,0.4717 -0.75248,1.03421 -0.8001,1.8695 -0.0891,1.56179 0.56724,2.5545 1.9768,2.99013 0.26955,0.0833 0.58837,0.15146 0.70848,0.15146 0.20419,0 0.21811,0.0201 0.21412,0.30927 -0.004,0.25205 -0.0347,0.31545 -0.16867,0.3426 -1.14154,0.23139 -1.43175,0.35485 -1.94403,0.82706 -0.18571,0.17118 -0.43349,0.50706 -0.55062,0.74639 -0.19475,0.39795 -0.21302,0.51097 -0.21376,1.32197 -7.2e-4,0.79904 0.0194,0.92994 0.2034,1.32237 0.2509,0.53516 0.73485,1.03175 1.21053,1.24217 0.79231,0.35048 0.95875,0.36396 4.50386,0.36492 l 3.37378,9.2e-4 v 0.30846 0.30846 l -3.48946,-0.005 c -2.74473,-0.004 -3.57546,-0.0282 -3.89242,-0.1136 z"
         id="path8" /></g></g></svg>
