<?xml version="1.0" encoding="UTF-8"?>
<svg version="1.1" xmlns="http://www.w3.org/2000/svg" width="32" height="32">
<path d="M0 0 C8.58 0 17.16 0 26 0 C26.13487291 4.39685683 26.23408579 8.7895828 26.3125 13.1875 C26.35439453 14.43337891 26.39628906 15.67925781 26.43945312 16.96289062 C26.56037584 25.98372517 26.56037584 25.98372517 24.15625 30.34375 C19.48637023 32.79428097 15.36692526 32.53686366 10.1875 32.3125 C6.825625 32.209375 3.46375 32.10625 0 32 C0 21.44 0 10.88 0 0 Z " fill="#7A7A7A" transform="translate(3,0)"/>
<path d="M0 0 C6.6 0 13.2 0 20 0 C20 4.29 20 8.58 20 13 C13.4 13 6.8 13 0 13 C0 8.71 0 4.42 0 0 Z " fill="#303432" transform="translate(6,12)"/>
<path d="M0 0 C6.6 0 13.2 0 20 0 C20 2.31 20 4.62 20 7 C13.4 7 6.8 7 0 7 C0 4.69 0 2.38 0 0 Z " fill="#565455" transform="translate(6,4)"/>
<path d="M0 0 C5.28 0 10.56 0 16 0 C16 1.98 16 3.96 16 6 C10.72 6 5.44 6 0 6 C0 4.02 0 2.04 0 0 Z " fill="#E7E7E7" transform="translate(6,25)"/>
<path d="M0 0 C2.31 0 4.62 0 7 0 C7 3.63 7 7.26 7 11 C4.69 11 2.38 11 0 11 C0 7.37 0 3.74 0 0 Z " fill="#72DDE6" transform="translate(7,13)"/>
<path d="M0 0 C0.33 0 0.66 0 1 0 C1.11638426 4.06225821 1.18731373 8.1240863 1.25 12.1875 C1.30027344 13.91323242 1.30027344 13.91323242 1.3515625 15.67382812 C1.36445313 16.78564453 1.37734375 17.89746094 1.390625 19.04296875 C1.41157227 20.06414795 1.43251953 21.08532715 1.45410156 22.13745117 C0.8813406 25.74800079 -0.45720668 27.42440217 -3 30 C-3.66 30 -4.32 30 -5 30 C-5 28.02 -5 26.04 -5 24 C-3.35 24 -1.7 24 0 24 C-0.05329468 23.06933716 -0.05329468 23.06933716 -0.10766602 22.11987305 C-0.26525147 19.30937992 -0.41397433 16.49848584 -0.5625 13.6875 C-0.61857422 12.71103516 -0.67464844 11.73457031 -0.73242188 10.72851562 C-0.78076172 9.79072266 -0.82910156 8.85292969 -0.87890625 7.88671875 C-0.9260376 7.02264404 -0.97316895 6.15856934 -1.02172852 5.26831055 C-1 3 -1 3 0 0 Z " fill="#878787" transform="translate(27,1)"/>
<path d="M0 0 C2.31 0 4.62 0 7 0 C7 1.32 7 2.64 7 4 C4.69 4 2.38 4 0 4 C0 2.68 0 1.36 0 0 Z " fill="#F4816F" transform="translate(18,20)"/>
<path d="M0 0 C2.31 0 4.62 0 7 0 C7 1.32 7 2.64 7 4 C4.69 4 2.38 4 0 4 C0 2.68 0 1.36 0 0 Z " fill="#FCC167" transform="translate(18,13)"/>
</svg>
